{"title":"Van Morrison - Tupelo Honey  FLAC","uid":4950286,"size":276446848,"categoryP":"audio","categoryS":"flac","magnet":"?xt=urn:btih:5d3867acf9fbb04d142a8d6132ccd121f41f2d04&amp;dn=Van+Morrison+-+Tupelo+Honey++FLAC&amp;tr=udp%3A%2F%2Ftracker.openbittorrent.com%3A80&amp;tr=udp%3A%2F%2Fopen.demonii.com%3A1337&amp;tr=udp%3A%2F%2Ftracker.coppersurfer.tk%3A6969&amp;tr=udp%3A%2F%2Fexodus.desync.com%3A6969","seeders":0,"leechers":2,"uploader":"miona45","files":-1,"time":1244853262,"description":"Van Morrison - Tupelo Honey - 1971\n\nThis is NOT the remastered disc.  The woman on the front\ncover was Morrison's wife at the time---Janet Planet.\n\nThe disc was ripped to flac using EAC.  The upload includes \ncue sheet, log file, playlist and artwork.  Enjoy.\n\nFor more on flac:\nsourceforge.net\ndbpoweramp.com\nexactaudiocopy.de\n\n01-Wild Night  3:34\n02-(Straight To Your Heart) Like A Cannonball  3:42\n03-Old Old Woodstock  4:17\n04-Starting A New Life  2:10\n05-You're My Woman  6:43\n06-Tupelo Honey  6:53\n07-I Want To Roo You  3:27\n08-When That Evening Sun Goes Down  3:06\n09-Moonshine Whiskey 6:49\n\nFor those of you who want to know this stuff before you download:\n\nMake use of C2 pointers : No\nRead offset correction                      : 6\nOverread into Lead-In and Lead-Out          : No\nFill up missing offset samples with silence : Yes\nDelete leading and trailing silent blocks   : No\nNull samples used in CRC calculations       : Yes\nUsed interface                              : Installed external ASPI interface\nGap handling                                : Appended to previous track\n\nUsed output format              : User Defined Encoder\nSelected bitrate                : 1024 kBit/s\nQuality                         : High\nAdd ID3 tag                     : No\nCommand line compressor         : C:Program FilesFLACflac.exe\nAdditional command line options : -V -8 -T &quot;artist=%a&quot; -T &quot;title=%t&quot; -T &quot;album=%g&quot; -T &quot;date=%y&quot; -T &quot;tracknumber=%n&quot; -T &quot;genre=%m&quot; %s  \n\n\nTOC of the extracted CD\n\n     Track |   Start  |  Length  | Start sector | End sector \n    ---------------------------------------------------------\n        1  |  0:00.00 |  3:34.47 |         0    |    16096   \n        2  |  3:34.47 |  3:42.15 |     16097    |    32761   \n        3  |  7:16.62 |  4:17.30 |     32762    |    52066   \n        4  | 11:34.17 |  2:10.33 |     52067    |    61849   \n        5  | 13:44.50 |  6:43.27 |     61850    |    92101   \n        6  | 20:28.02 |  6:53.73 |     92102    |   123149   \n        7  | 27:22.00 |  3:27.30 |    123150    |   138704   \n        8  | 30:49.30 |  3:06.07 |    138705    |   152661   \n        9  | 33:55.37 |  6:49.15 |    152662    |   183351   \n","torrent":{"xt":"urn:btih:5d3867acf9fbb04d142a8d6132ccd121f41f2d04","amp;dn":"Van+Morrison+-+Tupelo+Honey++FLAC","amp;tr":["udp%3A%2F%2Ftracker.openbittorrent.com%3A80","udp%3A%2F%2Fopen.demonii.com%3A1337","udp%3A%2F%2Ftracker.coppersurfer.tk%3A6969","udp%3A%2F%2Fexodus.desync.com%3A6969"],"infoHash":"5d3867acf9fbb04d142a8d6132ccd121f41f2d04","infoHashBuffer":{"type":"Buffer","data":[93,56,103,172,249,251,176,77,20,42,141,97,50,204,209,33,244,31,45,4]},"announce":[],"urlList":[]}}